<svg width="130" height="129" viewBox="0 0 130 129" fill="none" xmlns="http://www.w3.org/2000/svg">
<rect x="10" y="9" width="120" height="120" rx="12" fill="white"/>
<rect x="11" y="10" width="118" height="118" rx="11" stroke="#B8292F" stroke-opacity="0.5" stroke-width="2"/>
<path d="M115.76 59.8334C115.59 53.8247 115.022 49.993 113.097 46.7251C110.356 42.073 105.425 39.4834 95.5659 34.3134L86.3993 29.5009C78.3509 25.2797 74.3267 23.1667 70.0001 23.1667C65.6734 23.1667 61.6492 25.2751 53.6009 29.5009L44.4342 34.3134C34.5755 39.4834 29.6438 42.073 26.903 46.7251C24.1667 51.3726 24.1667 57.1613 24.1667 68.7342V69.2705C24.1667 80.8388 24.1667 86.6276 26.903 91.2751C29.6438 95.9272 34.5755 98.5167 44.4342 103.691L53.6009 108.499C61.6492 112.72 65.6734 114.833 70.0001 114.833C74.3267 114.833 78.3509 112.725 86.3993 108.499L95.5659 103.687C105.425 98.5122 110.356 95.9272 113.097 91.2751C115.022 88.0072 115.59 84.1755 115.76 78.1667M111.25 48.3751L92.9168 57.5417M92.9168 57.5417L90.6251 58.6876L70.0001 69.0001M92.9168 57.5417V73.5834M92.9168 57.5417L49.3751 34.6251M70.0001 69.0001L28.7501 48.3751M70.0001 69.0001V112.542" stroke="#B8292F" stroke-width="1.5" stroke-linecap="round"/>
<g filter="url(#filter0_d_185_473)">
<rect x="2" y="1" width="24" height="24" rx="12" fill="#B8292F" fill-opacity="0.5" shape-rendering="crispEdges"/>
<rect x="3" y="2" width="22" height="22" rx="11" stroke="white" stroke-width="2" shape-rendering="crispEdges"/>
<path d="M13.9996 16.0994C13.4882 16.0994 13.0336 16.0118 12.6359 15.8366C12.2406 15.6615 11.9281 15.4176 11.6984 15.1051C11.4688 14.7926 11.3469 14.4316 11.3327 14.022H12.6679C12.6797 14.2185 12.7448 14.3902 12.8632 14.5369C12.9816 14.6813 13.139 14.7938 13.3355 14.8743C13.532 14.9548 13.7522 14.995 13.996 14.995C14.2564 14.995 14.4872 14.95 14.6885 14.8601C14.8897 14.7678 15.0471 14.6399 15.1608 14.4766C15.2744 14.3132 15.33 14.125 15.3277 13.9119C15.33 13.6918 15.2732 13.4976 15.1572 13.3295C15.0412 13.1615 14.8731 13.0301 14.653 12.9354C14.4352 12.8407 14.1724 12.7933 13.8646 12.7933H13.2219V11.7777H13.8646C14.1179 11.7777 14.3393 11.7339 14.5287 11.6463C14.7204 11.5587 14.8708 11.4356 14.9797 11.277C15.0886 11.116 15.1418 10.9302 15.1395 10.7195C15.1418 10.5135 15.0957 10.3348 15.001 10.1832C14.9086 10.0294 14.7773 9.9098 14.6068 9.82457C14.4387 9.73935 14.241 9.69673 14.0138 9.69673C13.7912 9.69673 13.5853 9.73698 13.3959 9.81747C13.2065 9.89796 13.0538 10.0128 12.9378 10.1619C12.8218 10.3087 12.7602 10.4839 12.7531 10.6875H11.4854C11.4948 10.2803 11.612 9.92282 11.8369 9.61506C12.0642 9.30492 12.3672 9.06345 12.746 8.89062C13.1248 8.71544 13.5497 8.62784 14.0209 8.62784C14.5062 8.62784 14.9276 8.71899 15.2851 8.90128C15.6449 9.0812 15.9231 9.32386 16.1196 9.62926C16.3161 9.93466 16.4143 10.272 16.4143 10.6413C16.4167 11.0509 16.296 11.3942 16.0521 11.6712C15.8106 11.9482 15.4934 12.1293 15.1004 12.2145V12.2713C15.6118 12.3423 16.0036 12.5317 16.2758 12.8395C16.5505 13.1449 16.6866 13.5249 16.6842 13.9794C16.6842 14.3866 16.5682 14.7512 16.3362 15.0732C16.1066 15.3928 15.7893 15.6437 15.3845 15.826C14.982 16.0083 14.5204 16.0994 13.9996 16.0994Z" fill="#B8292F"/>
</g>
<defs>
<filter id="filter0_d_185_473" x="0" y="0" width="28" height="28" filterUnits="userSpaceOnUse" color-interpolation-filters="sRGB">
<feFlood flood-opacity="0" result="BackgroundImageFix"/>
<feColorMatrix in="SourceAlpha" type="matrix" values="0 0 0 0 0 0 0 0 0 0 0 0 0 0 0 0 0 0 127 0" result="hardAlpha"/>
<feOffset dy="1"/>
<feGaussianBlur stdDeviation="1"/>
<feComposite in2="hardAlpha" operator="out"/>
<feColorMatrix type="matrix" values="0 0 0 0 0 0 0 0 0 0 0 0 0 0 0 0 0 0 0.05 0"/>
<feBlend mode="normal" in2="BackgroundImageFix" result="effect1_dropShadow_185_473"/>
<feBlend mode="normal" in="SourceGraphic" in2="effect1_dropShadow_185_473" result="shape"/>
</filter>
</defs>
</svg>
