<svg width="130" height="129" viewBox="0 0 130 129" fill="none" xmlns="http://www.w3.org/2000/svg">
<rect x="10" y="9" width="120" height="120" rx="12" fill="white"/>
<rect x="11" y="10" width="118" height="118" rx="11" stroke="#B8292F" stroke-opacity="0.5" stroke-width="2"/>
<path d="M114.688 81.8906C115.371 81.8906 116.027 81.619 116.511 81.1355C116.994 80.652 117.266 79.9963 117.266 79.3125C117.266 78.6287 116.994 77.973 116.511 77.4895C116.027 77.006 115.371 76.7344 114.688 76.7344C105.067 76.7272 95.4976 78.1241 86.2809 80.8809C83.0762 78.8108 79.7675 76.9062 76.368 75.1746C88.6012 70.4979 101.591 68.1135 114.688 68.1406C115.371 68.1406 116.027 67.869 116.511 67.3855C116.994 66.902 117.266 66.2463 117.266 65.5625C117.266 64.8787 116.994 64.223 116.511 63.7395C116.027 63.256 115.371 62.9844 114.688 62.9844C112.109 62.9844 109.531 63.0789 106.953 63.2508V48.375C106.953 47.9748 106.86 47.58 106.681 47.222C106.502 46.864 106.242 46.5526 105.922 46.3125L78.4219 25.6875C77.9756 25.3528 77.4328 25.1719 76.875 25.1719C76.3172 25.1719 75.7744 25.3528 75.3281 25.6875L47.8281 46.3125C47.5079 46.5526 47.248 46.864 47.0691 47.222C46.8901 47.58 46.7969 47.9748 46.7969 48.375V65.034C39.7167 63.6703 32.5228 62.984 25.3125 62.9844C24.6287 62.9844 23.973 63.256 23.4895 63.7395C23.006 64.223 22.7344 64.8787 22.7344 65.5625C22.7344 66.2463 23.006 66.902 23.4895 67.3855C23.973 67.869 24.6287 68.1406 25.3125 68.1406C41.4218 68.1086 57.3303 71.7147 71.8512 78.6899C86.3722 85.665 99.1306 95.8291 109.175 108.424C109.416 108.726 109.723 108.97 110.072 109.137C110.421 109.304 110.803 109.391 111.19 109.391C111.675 109.39 112.15 109.251 112.56 108.992C112.971 108.733 113.3 108.364 113.509 107.926C113.719 107.489 113.801 107.001 113.745 106.519C113.69 106.037 113.5 105.58 113.196 105.201C110.68 102.062 108 99.0588 105.166 96.2035C108.326 95.8314 111.505 95.6435 114.688 95.6406C115.371 95.6406 116.027 95.369 116.511 94.8855C116.994 94.402 117.266 93.7463 117.266 93.0625C117.266 92.3787 116.994 91.723 116.511 91.2395C116.027 90.756 115.371 90.4844 114.688 90.4844C109.906 90.4843 105.132 90.8853 100.418 91.6832C97.659 89.2053 94.7944 86.8779 91.8238 84.7008C99.301 82.83 106.98 81.8862 114.688 81.8906ZM69.1406 71.8187V57.8281H84.6094V67.0492C79.6359 68.4278 74.7644 70.1507 70.0301 72.2055L69.1406 71.8187ZM51.9531 49.6641L76.875 30.9727L101.797 49.6641V63.7191C97.7525 64.1778 93.7362 64.8563 89.7656 65.7516V55.25C89.7656 54.5662 89.494 53.9105 89.0105 53.427C88.527 52.9435 87.8713 52.6719 87.1875 52.6719H66.5625C65.8787 52.6719 65.223 52.9435 64.7395 53.427C64.256 53.9105 63.9844 54.5662 63.9844 55.25V69.7949C60.0456 68.3575 56.0288 67.1439 51.9531 66.1598V49.6641ZM73.0809 108.239C72.8936 108.521 72.6526 108.764 72.3715 108.953C72.0905 109.142 71.7749 109.274 71.4429 109.341C71.1109 109.408 70.769 109.409 70.4366 109.344C70.1042 109.278 69.788 109.148 69.5059 108.961C56.4149 100.251 41.0363 95.6157 25.3125 95.6406C24.6287 95.6406 23.973 95.369 23.4895 94.8855C23.006 94.402 22.7344 93.7463 22.7344 93.0625C22.7344 92.3787 23.006 91.723 23.4895 91.2395C23.973 90.756 24.6287 90.4844 25.3125 90.4844C42.0513 90.4578 58.4227 95.3921 72.359 104.664C72.6412 104.851 72.8838 105.092 73.0728 105.373C73.2618 105.654 73.3936 105.97 73.4607 106.302C73.5277 106.634 73.5287 106.976 73.4635 107.308C73.3983 107.641 73.2683 107.957 73.0809 108.239ZM94.4793 104.969C94.7211 105.206 94.9138 105.488 95.0465 105.8C95.1792 106.111 95.2493 106.446 95.2526 106.785C95.256 107.123 95.1927 107.459 95.0663 107.773C94.9399 108.087 94.7528 108.373 94.5158 108.615C94.2788 108.857 93.9965 109.05 93.685 109.182C93.3736 109.315 93.039 109.385 92.7004 109.388C92.3619 109.392 92.026 109.328 91.7119 109.202C91.3978 109.076 91.1117 108.889 90.8699 108.652C73.3916 91.4501 49.8355 81.8343 25.3125 81.8906C24.6287 81.8906 23.973 81.619 23.4895 81.1355C23.006 80.652 22.7344 79.9963 22.7344 79.3125C22.7344 78.6287 23.006 77.973 23.4895 77.4895C23.973 77.006 24.6287 76.7344 25.3125 76.7344C51.1902 76.6719 76.0484 86.8174 94.4922 104.969H94.4793Z" fill="#B8292F"/>
<g filter="url(#filter0_d_184_420)">
<rect x="2" y="1" width="24" height="24" rx="12" fill="#B8292F" fill-opacity="0.3" shape-rendering="crispEdges"/>
<rect x="3" y="2" width="22" height="22" rx="11" stroke="white" stroke-width="2" shape-rendering="crispEdges"/>
<path d="M15.4992 8.72461V16H14.0139V10.0375H13.9651L12.2969 11.2173V9.85205L13.9053 8.72461H15.4992Z" fill="#B8292F"/>
</g>
<defs>
<filter id="filter0_d_184_420" x="0" y="0" width="28" height="28" filterUnits="userSpaceOnUse" color-interpolation-filters="sRGB">
<feFlood flood-opacity="0" result="BackgroundImageFix"/>
<feColorMatrix in="SourceAlpha" type="matrix" values="0 0 0 0 0 0 0 0 0 0 0 0 0 0 0 0 0 0 127 0" result="hardAlpha"/>
<feOffset dy="1"/>
<feGaussianBlur stdDeviation="1"/>
<feComposite in2="hardAlpha" operator="out"/>
<feColorMatrix type="matrix" values="0 0 0 0 0 0 0 0 0 0 0 0 0 0 0 0 0 0 0.05 0"/>
<feBlend mode="normal" in2="BackgroundImageFix" result="effect1_dropShadow_184_420"/>
<feBlend mode="normal" in="SourceGraphic" in2="effect1_dropShadow_184_420" result="shape"/>
</filter>
</defs>
</svg>
