<svg width="130" height="129" viewBox="0 0 130 129" fill="none" xmlns="http://www.w3.org/2000/svg">
<rect x="10" y="9" width="120" height="120" rx="12" fill="white"/>
<rect x="11" y="10" width="118" height="118" rx="11" stroke="#B8292F" stroke-opacity="0.5" stroke-width="2"/>
<path d="M114.138 88.5709L96.4002 106.446L90.2127 100.167L83.7502 106.675L96.3543 119.417L120.554 95.0334L114.138 88.5709ZM74.5835 105.667C74.5835 90.4959 86.9127 78.1667 102.083 78.1667C106.667 78.1667 110.883 79.2667 114.642 81.2375L120.233 61.1625L120.417 59.8334C120.417 57.3125 118.354 55.25 115.833 55.25H94.8418L73.8043 25.1834C73.3892 24.5635 72.8287 24.0548 72.1717 23.7015C71.5147 23.3482 70.7812 23.1611 70.0352 23.1566C69.2893 23.1521 68.5535 23.3302 67.8923 23.6755C67.2311 24.0208 66.6644 24.5228 66.2418 25.1375L45.1585 55.25H24.1668C21.646 55.25 19.5835 57.3125 19.5835 59.8334L20.0418 61.85L32.0043 105.208C33.5168 108.188 36.6335 110.25 40.2085 110.25H74.996C74.7668 108.738 74.5835 107.225 74.5835 105.667ZM70.0002 35.725L83.7502 55.25H56.2502L70.0002 35.725ZM60.8335 82.75C60.8335 77.7084 64.9585 73.5834 70.0002 73.5834C75.0418 73.5834 79.1668 77.7084 79.1668 82.75C79.1668 87.7917 75.0877 91.9167 70.0002 91.9167C64.9127 91.9167 60.8335 87.8375 60.8335 82.75Z" fill="#B8292F"/>
<g filter="url(#filter0_d_184_433)">
<rect x="2" y="1" width="24" height="24" rx="12" fill="#B8292F" fill-opacity="0.5" shape-rendering="crispEdges"/>
<rect x="3" y="2" width="22" height="22" rx="11" stroke="white" stroke-width="2" shape-rendering="crispEdges"/>
<path d="M11.4546 16V14.9276L14.0325 12.5086C14.2534 12.293 14.4403 12.0986 14.5929 11.9256C14.7456 11.7526 14.8618 11.5823 14.9415 11.4146C15.0212 11.2469 15.0611 11.0649 15.0611 10.8684C15.0611 10.6514 15.0118 10.4646 14.9134 10.3081C14.8149 10.1515 14.6812 10.0311 14.5121 9.94675C14.3431 9.86241 14.1494 9.82024 13.9312 9.82024C13.7055 9.82024 13.5085 9.86585 13.3402 9.95706C13.1719 10.0483 13.0417 10.1785 12.9494 10.3476C12.8572 10.5168 12.8111 10.7196 12.8111 10.9562H11.3898C11.3898 10.4825 11.4974 10.0715 11.7127 9.72315C11.928 9.37478 12.2276 9.10498 12.6116 8.91377C12.9956 8.72256 13.4392 8.62695 13.9424 8.62695C14.4563 8.62695 14.905 8.7186 15.2888 8.9019C15.6726 9.08521 15.9711 9.3382 16.1844 9.66089C16.3976 9.98358 16.5043 10.3547 16.5043 10.7742C16.5043 11.0467 16.4514 11.3145 16.3455 11.5775C16.2397 11.8406 16.0513 12.1353 15.7803 12.4616C15.5092 12.7879 15.1246 13.1798 14.6263 13.6373L13.525 14.7225V14.7758H16.6026V16H11.4546Z" fill="#B8292F"/>
</g>
<defs>
<filter id="filter0_d_184_433" x="0" y="0" width="28" height="28" filterUnits="userSpaceOnUse" color-interpolation-filters="sRGB">
<feFlood flood-opacity="0" result="BackgroundImageFix"/>
<feColorMatrix in="SourceAlpha" type="matrix" values="0 0 0 0 0 0 0 0 0 0 0 0 0 0 0 0 0 0 127 0" result="hardAlpha"/>
<feOffset dy="1"/>
<feGaussianBlur stdDeviation="1"/>
<feComposite in2="hardAlpha" operator="out"/>
<feColorMatrix type="matrix" values="0 0 0 0 0 0 0 0 0 0 0 0 0 0 0 0 0 0 0.05 0"/>
<feBlend mode="normal" in2="BackgroundImageFix" result="effect1_dropShadow_184_433"/>
<feBlend mode="normal" in="SourceGraphic" in2="effect1_dropShadow_184_433" result="shape"/>
</filter>
</defs>
</svg>
