<svg width="75" height="75" viewBox="0 0 75 75" fill="none" xmlns="http://www.w3.org/2000/svg">
<path opacity="0.2" d="M58.5938 44.5312L46.875 56.25L28.125 51.5625L11.7188 39.8438L21.293 20.6924L37.5 16.4062L53.707 20.6924L53.7891 21.0938H42.1875L28.8105 34.0693C28.5619 34.3179 28.3723 34.6192 28.2559 34.951C28.1395 35.2827 28.0992 35.6364 28.138 35.9859C28.1768 36.3353 28.2938 36.6715 28.4802 36.9696C28.6666 37.2678 28.9177 37.5201 29.2148 37.708C34.3447 40.9863 41.3086 40.7607 46.875 35.1562L58.5938 44.5312Z" fill="#B8292F"/>
<path d="M74.502 31.6143L67.0254 16.6553C66.75 16.1047 66.3688 15.6138 65.9036 15.2105C65.4384 14.8073 64.8984 14.4996 64.3143 14.3051C63.7302 14.1106 63.1135 14.033 62.4994 14.0768C61.8853 14.1207 61.2859 14.285 60.7354 14.5606L53.4492 18.2022L38.1006 14.1416C37.7068 14.0391 37.2933 14.0391 36.8994 14.1416L21.5508 18.2022L14.2647 14.5606C13.7141 14.285 13.1147 14.1207 12.5006 14.0768C11.8866 14.033 11.2699 14.1106 10.6858 14.3051C10.1017 14.4996 9.56161 14.8073 9.09643 15.2105C8.63125 15.6138 8.25006 16.1047 7.97463 16.6553L0.498071 31.6114C0.222552 32.1619 0.0581796 32.7613 0.0143411 33.3754C-0.0294973 33.9895 0.0480568 34.6062 0.242575 35.1903C0.437092 35.7743 0.744764 36.3144 1.14802 36.7796C1.55127 37.2448 2.04221 37.626 2.5928 37.9014L10.503 41.8594L26.7598 53.4697C26.9995 53.6399 27.2687 53.7641 27.5537 53.836L46.3037 58.5235C46.6964 58.6219 47.1079 58.617 47.4981 58.5092C47.8883 58.4014 48.2439 58.1943 48.5303 57.9082L64.6641 41.7715L72.4043 37.9014C73.5155 37.3451 74.3604 36.3704 74.7532 35.1915C75.146 34.0125 75.0546 32.7259 74.499 31.6143H74.502ZM58.4209 41.3906L48.3399 33.3164C47.8882 32.9548 47.3188 32.7729 46.7411 32.8059C46.1635 32.8389 45.6185 33.0844 45.211 33.4951C39.9932 38.751 34.1778 38.086 30.4688 35.7422L43.1367 23.4375H52.4561L60.4278 39.378L58.4209 41.3906ZM12.167 18.75L18.1641 21.7442L10.6729 36.7002L4.68752 33.709L12.167 18.75ZM46.1514 53.6514L29.127 49.3975L14.7129 39.1026L22.916 22.6963L37.5 18.8321L40.3711 19.5908L27.1875 32.3877L27.1641 32.4141C26.6678 32.9104 26.2893 33.5117 26.0565 34.1738C25.8237 34.8359 25.7426 35.5419 25.8191 36.2395C25.8955 36.9372 26.1277 37.6087 26.4984 38.2047C26.8692 38.8006 27.369 39.3057 27.961 39.6826C33.9844 43.5293 41.253 42.9053 46.9776 38.2178L55.0781 44.7246L46.1514 53.6514ZM64.3155 36.6973L56.8389 21.7559L62.833 18.75L70.3125 33.709L64.3155 36.6973ZM38.6074 63.8467C38.4808 64.3533 38.1887 64.803 37.7774 65.1247C37.366 65.4463 36.8591 65.6214 36.3369 65.6221C36.1443 65.6222 35.9525 65.5986 35.7657 65.5518L23.5576 62.499C23.2721 62.4285 23.0027 62.3042 22.7637 62.1328L15.044 56.6192C14.5693 56.2465 14.2567 55.7051 14.1712 55.1077C14.0858 54.5102 14.234 53.9029 14.5852 53.4121C14.9363 52.9212 15.4632 52.5848 16.0562 52.4727C16.6492 52.3607 17.2626 52.4817 17.7686 52.8106L25.125 58.0664L36.9141 61.0078C37.517 61.1587 38.0353 61.5428 38.3551 62.0757C38.6748 62.6086 38.7698 63.2467 38.6192 63.8496L38.6074 63.8467Z" fill="#B8292F"/>
</svg>
