<svg width="43" height="43" viewBox="0 0 43 43" fill="none" xmlns="http://www.w3.org/2000/svg">
<path d="M6 36.4808C4.125 34.6058 2.65625 32.4391 1.59375 29.9808C0.53125 27.5224 0 24.9808 0 22.3558C0 19.7308 0.5 17.137 1.5 14.5745C2.5 12.012 4.125 9.60577 6.375 7.35577C7.83333 5.89744 9.63542 4.64744 11.7812 3.60577C13.9271 2.5641 16.4688 1.74119 19.4062 1.13702C22.3438 0.532853 25.6979 0.168269 29.4688 0.0432692C33.2396 -0.0817308 37.4583 0.0641026 42.125 0.480769C42.4583 4.89744 42.5625 8.95994 42.4375 12.6683C42.3125 16.3766 41.9688 19.7204 41.4062 22.6995C40.8438 25.6787 40.0521 28.2829 39.0312 30.512C38.0104 32.7412 36.75 34.6058 35.25 36.1058C33.0417 38.3141 30.6979 39.9287 28.2188 40.9495C25.7396 41.9704 23.2083 42.4808 20.625 42.4808C17.9167 42.4808 15.2708 41.9495 12.6875 40.887C10.1042 39.8245 7.875 38.3558 6 36.4808V36.4808M13 35.4808C14.2083 36.1891 15.4479 36.6995 16.7188 37.012C17.9896 37.3245 19.2917 37.4808 20.625 37.4808C22.5417 37.4808 24.4375 37.0954 26.3125 36.3245C28.1875 35.5537 29.9792 34.3141 31.6875 32.6058C32.4375 31.8558 33.1979 30.8037 33.9688 29.4495C34.7396 28.0954 35.4062 26.3245 35.9688 24.137C36.5312 21.9495 36.9583 19.3037 37.25 16.1995C37.5417 13.0954 37.5833 9.39744 37.375 5.10577C35.3333 5.02244 33.0312 4.99119 30.4688 5.01202C27.9062 5.03285 25.3542 5.23077 22.8125 5.60577C20.2708 5.98077 17.8542 6.58494 15.5625 7.41827C13.2708 8.2516 11.3958 9.39744 9.9375 10.8558C8.0625 12.7308 6.77083 14.5849 6.0625 16.4183C5.35417 18.2516 5 20.0224 5 21.7308C5 24.1891 5.46875 26.3454 6.40625 28.1995C7.34375 30.0537 8.16667 31.3558 8.875 32.1058C10.625 28.7724 12.9375 25.5745 15.8125 22.512C18.6875 19.4495 22.0417 16.9391 25.875 14.9808C22.875 17.6058 20.2604 20.5745 18.0312 23.887C15.8021 27.1995 14.125 31.0641 13 35.4808V35.4808M13 35.4808V35.4808V35.4808V35.4808V35.4808V35.4808V35.4808V35.4808V35.4808V35.4808V35.4808V35.4808M13 35.4808V35.4808V35.4808V35.4808V35.4808V35.4808V35.4808V35.4808V35.4808V35.4808V35.4808V35.4808V35.4808V35.4808V35.4808V35.4808V35.4808V35.4808V35.4808V35.4808V35.4808V35.4808" fill="#B8292F"/>
</svg>
