<svg width="75" height="75" viewBox="0 0 75 75" fill="none" xmlns="http://www.w3.org/2000/svg">
<path d="M25.9091 75L19.4318 63.5714L7.15909 60.7143L8.35227 47.5L0 37.5L8.35227 27.5L7.15909 14.2857L19.4318 11.4286L25.9091 0L37.5 5.17857L49.0909 0L55.5682 11.4286L67.8409 14.2857L66.6477 27.5L75 37.5L66.6477 47.5L67.8409 60.7143L55.5682 63.5714L49.0909 75L37.5 69.8214L25.9091 75ZM28.8068 65.8929L37.5 61.9643L46.3636 65.8929L51.1364 57.3214L60.5114 55L59.6591 45L65.9659 37.5L59.6591 29.8214L60.5114 19.8214L51.1364 17.6786L46.1932 9.10714L37.5 13.0357L28.6364 9.10714L23.8636 17.6786L14.4886 19.8214L15.3409 29.8214L9.03409 37.5L15.3409 45L14.4886 55.1786L23.8636 57.3214L28.8068 65.8929ZM33.9205 50.1786L53.1818 30L48.4091 24.8214L33.9205 40L26.5909 32.5L21.8182 37.5L33.9205 50.1786Z" fill="#B8292F"/>
</svg>
