<svg width="58" height="56" viewBox="0 0 58 56" fill="none" xmlns="http://www.w3.org/2000/svg">
<g filter="url(#filter0_d_211_337)">
<path d="M10.25 20C9.16667 20 8.27083 19.6458 7.5625 18.9375C6.85417 18.2292 6.5 17.3333 6.5 16.25C6.5 15.1667 6.85417 14.2708 7.5625 13.5625C8.27083 12.8542 9.16667 12.5 10.25 12.5C11.3333 12.5 12.2292 12.8542 12.9375 13.5625C13.6458 14.2708 14 15.1667 14 16.25C14 17.3333 13.6458 18.2292 12.9375 18.9375C12.2292 19.6458 11.3333 20 10.25 20V20M6.5 47.5V35H4V25C4 24.2917 4.23958 23.6979 4.71875 23.2188C5.19792 22.7396 5.79167 22.5 6.5 22.5H14C14.7083 22.5 15.3021 22.7396 15.7812 23.2188C16.2604 23.6979 16.5 24.2917 16.5 25V35H14V42.5H34V30H29.625C26.6667 30 24.1562 28.9688 22.0938 26.9062C20.0312 24.8438 19 22.3333 19 19.375C19 17.1667 19.5938 15.1979 20.7812 13.4688C21.9688 11.7396 23.5 10.4583 25.375 9.625C25.8333 6.91667 27.0938 4.63542 29.1562 2.78125C31.2188 0.927083 33.6667 0 36.5 0C39.3333 0 41.7812 0.927083 43.8438 2.78125C45.9062 4.63542 47.1667 6.91667 47.625 9.625C49.5 10.4583 51.0312 11.7396 52.2188 13.4688C53.4062 15.1979 54 17.1667 54 19.375C54 22.3333 52.9688 24.8438 50.9062 26.9062C48.8438 28.9688 46.3333 30 43.375 30H39V42.5H51.5V47.5H6.5V47.5M29.625 25H43.375C44.9583 25 46.2917 24.4583 47.375 23.375C48.4583 22.2917 49 20.9583 49 19.375C49 18.25 48.6979 17.2292 48.0938 16.3125C47.4896 15.3958 46.6667 14.7083 45.625 14.25L43 13.125L42.625 10.375C42.375 8.83333 41.6771 7.55208 40.5312 6.53125C39.3854 5.51042 38.0417 5 36.5 5C34.9583 5 33.6146 5.51042 32.4688 6.53125C31.3229 7.55208 30.625 8.83333 30.375 10.375L30 13.125L27.375 14.25C26.3333 14.7083 25.5104 15.3958 24.9062 16.3125C24.3021 17.2292 24 18.25 24 19.375C24 20.9583 24.5417 22.2917 25.625 23.375C26.7083 24.4583 28.0417 25 29.625 25V25M36.5 15V15V15V15V15V15V15V15V15V15V15V15V15V15V15V15V15V15V15" fill="#B8292F"/>
</g>
<defs>
<filter id="filter0_d_211_337" x="0" y="0" width="58" height="55.5" filterUnits="userSpaceOnUse" color-interpolation-filters="sRGB">
<feFlood flood-opacity="0" result="BackgroundImageFix"/>
<feColorMatrix in="SourceAlpha" type="matrix" values="0 0 0 0 0 0 0 0 0 0 0 0 0 0 0 0 0 0 127 0" result="hardAlpha"/>
<feOffset dy="4"/>
<feGaussianBlur stdDeviation="2"/>
<feComposite in2="hardAlpha" operator="out"/>
<feColorMatrix type="matrix" values="0 0 0 0 0 0 0 0 0 0 0 0 0 0 0 0 0 0 0.25 0"/>
<feBlend mode="normal" in2="BackgroundImageFix" result="effect1_dropShadow_211_337"/>
<feBlend mode="normal" in="SourceGraphic" in2="effect1_dropShadow_211_337" result="shape"/>
</filter>
</defs>
</svg>
